<svg width="1150" height="1150" viewBox="0 0 1150 1150" fill="none" xmlns="http://www.w3.org/2000/svg">
<rect width="1150" height="1150" rx="575" fill="url(#paint0_linear_1522_6234)"/>
<path d="M343.648 986.695V861.8H433.66V889.121H377.555V910.587H429.025V937.908H377.555V959.374H433.416V986.695H343.648ZM498.532 986.695H450.476V861.8H498.044C510.891 861.8 521.99 864.3 531.341 869.301C540.733 874.261 547.97 881.417 553.052 890.767C558.174 900.078 560.736 911.238 560.736 924.248C560.736 937.258 558.195 948.438 553.113 957.789C548.031 967.099 540.834 974.255 531.524 979.255C522.214 984.215 511.216 986.695 498.532 986.695ZM484.383 957.911H497.312C503.492 957.911 508.757 956.915 513.107 954.923C517.498 952.93 520.832 949.495 523.108 944.616C525.426 939.738 526.584 932.948 526.584 924.248C526.584 915.547 525.405 908.758 523.047 903.879C520.73 899 517.315 895.565 512.802 893.573C508.33 891.581 502.841 890.584 496.336 890.584H484.383V957.911ZM576.424 986.695V861.8H666.436V889.121H610.331V910.587H661.801V937.908H610.331V959.374H666.192V986.695H576.424ZM791.316 861.8V986.695H763.02L717.891 921.076H717.16V986.695H683.252V861.8H712.037L756.433 927.175H757.409V861.8H791.316Z" fill="white"/>
<path fill-rule="evenodd" clip-rule="evenodd" d="M747.131 248.013C744.908 216.247 726.452 174.596 667.471 181.46C684.332 187.03 714.123 208.092 716.141 247.221C614.228 235.754 579.625 178.866 575.259 149.461C594.51 128.202 700.032 118.482 742.322 162.57C775.265 196.915 759.814 233.053 747.131 248.013Z" fill="white"/>
<path fill-rule="evenodd" clip-rule="evenodd" d="M763.697 261.369C772.327 248.195 790.352 234.673 814.151 251.881C805.529 250.213 787.585 252.109 777.264 268.508C824.016 288.171 852.689 271.976 861.674 260.34C858.5 246.516 815.306 216.836 786.406 225.651C763.892 232.518 761.835 251.85 763.697 261.369Z" fill="white"/>
<path fill-rule="evenodd" clip-rule="evenodd" d="M374.178 800.905H552.736C608.315 800.905 656.501 790.039 697.294 768.306C738.088 746.395 769.618 715.043 791.885 674.25C814.152 633.278 825.286 584.291 825.286 527.287C825.286 470.283 814.063 421.384 791.618 380.591C769.351 339.619 737.642 308.267 696.493 286.534C655.521 264.623 606.89 253.668 550.598 253.668H484.384C405.846 253.668 342.178 317.336 342.178 395.874V768.905C342.178 786.578 356.505 800.905 374.178 800.905ZM400.786 456.912C400.786 475.545 409.646 492.228 423.614 503.423C417.289 519.305 413.819 536.577 413.819 554.64C413.819 632.76 478.719 696.089 558.777 696.089C638.835 696.089 703.735 632.76 703.735 554.64C703.735 537.725 700.693 521.504 695.112 506.469C711.438 495.387 722.066 477.319 722.066 456.912C722.066 423.203 693.066 395.876 657.293 395.876C635.951 395.876 617.019 405.602 605.218 420.607C590.639 415.798 575.02 413.192 558.777 413.192C544.093 413.192 529.92 415.322 516.563 419.283C504.705 405.033 486.267 395.876 465.559 395.876C429.786 395.876 400.786 423.203 400.786 456.912Z" fill="white"/>
<defs>
<linearGradient id="paint0_linear_1522_6234" x1="1080.07" y1="667" x2="305.522" y2="2.18192" gradientUnits="userSpaceOnUse">
<stop stop-color="#C400FF"/>
<stop offset="1" stop-color="#FF0095"/>
</linearGradient>
</defs>
</svg>
